<svg height="496pt" viewBox="0 0 496.31519 496" width="496pt" xmlns="http://www.w3.org/2000/svg"><path d="m80 87.199219h96v64h-96zm0 0" fill="#bfa433"/><path d="m160 119.199219c-61.441406.003906-114.222656 43.648437-125.761719 104h251.523438c-11.539063-60.351563-64.320313-103.996094-125.761719-104zm0 0" fill="#ffda44"/><path d="m336 127.199219c-61.441406.003906-114.222656 43.648437-125.761719 104h251.523438c-11.539063-60.351563-64.320313-103.996094-125.761719-104zm0 0" fill="#ffda44"/><path d="m34.238281 223.199219h-26.238281c0 82.078125 49.199219 160.558593 112 208.558593v47.441407h256v-47.441407c62.800781-48 112-126.480468 112-208.558593zm0 0" fill="#d80027"/><path d="m40 79.199219h448v-24h-448zm0 0" fill="#603913"/><path d="m39.6875 30.292969 1.671875 23.945312 446.953125-30.136719-1.671875-23.945312zm0 0" fill="#603913"/><path d="m216.503906 447.199219h-40.503906c-4.417969 0-8 3.582031-8 8s3.582031 8 8 8h40.503906c4.417969 0 8-3.582031 8-8s-3.582031-8-8-8zm0 0"/><path d="m248.503906 447.199219h-8.503906c-4.417969 0-8 3.582031-8 8s3.582031 8 8 8h8.503906c4.417969 0 8-3.582031 8-8s-3.582031-8-8-8zm0 0"/><path d="m144.273438 407.925781c-37.839844-28.894531-84.898438-77.601562-94.128907-145.800781-.59375-4.378906-4.621093-7.449219-9-6.855469-4.378906.59375-7.449219 4.621094-6.855469 9 9.96875 73.601563 60 125.65625 100.269532 156.375l9.441406 7.199219v27.355469c0 4.417969 3.582031 8 8 8s8-3.582031 8-8v-31.304688c.011719-2.507812-1.152344-4.878906-3.144531-6.402343zm0 0"/><path d="m488 55.199219h-223.265625l224.113281-15.113281c2.121094-.140626 4.097656-1.121094 5.496094-2.722657 1.398438-1.601562 2.097656-3.695312 1.953125-5.8125l-1.679687-23.945312c-.351563-4.378907-4.132813-7.6796878-8.519532-7.433594l-446.945312 30.136719c-2.121094.140625-4.097656 1.121094-5.496094 2.722656s-2.097656 3.695312-1.953125 5.8125l.296875 48.355469c0 4.417969 3.582031 8 8 8h32v56c0 .117187.0625.214843.0625.328125-21.953125 18.59375-37.414062 43.695312-44.140625 71.671875h-19.921875c-4.417969 0-8 3.582031-8 8 0 77.160156 42.824219 158.207031 112 212.445312v43.554688c0 4.417969 3.582031 8 8 8h256c4.417969 0 8-3.582031 8-8v-43.554688c69.175781-54.238281 112-135.285156 112-212.445312 0-4.417969-3.582031-8-8-8h-19.921875c-11.027344-45.882813-45.101563-82.742188-89.976563-97.339844-44.875-14.59375-94.113281-4.828125-130.023437 25.785156-18.300781-15.597656-40.414063-26.058593-64.078125-30.320312v-26.125h304c4.417969 0 8-3.582031 8-8v-24c0-4.417969-3.582031-8-8-8zm-8.800781-38.523438.5625 8-430.960938 29.042969-.5625-8zm-391.199219 78.523438h16v36.125c-5.519531 2.519531-10.867188 5.40625-16 8.640625zm48 0v26.125c-5.410156 1.011719-10.753906 2.34375-16 4v-30.125zm24 40c53.945312.015625 101.253906 36.011719 115.65625 88h-25.183594c-13.542968-38.359375-49.796875-64.007813-90.472656-64.007813s-76.929688 25.648438-90.472656 64.007813h-25.183594c14.402344-51.988281 61.710938-87.984375 115.65625-88zm221.816406 88c-10.175781-14.660157-26.746094-23.570313-44.582031-23.984375-17.839844-.414063-34.804687 7.71875-45.648437 21.886718-2.21875-8.695312-5.292969-17.148437-9.1875-25.230468 19.070312-17.28125 45.296874-24.316406 70.453124-18.898438 25.160157 5.417969 46.164063 22.625 56.429688 46.226563zm-21.894531 0h-47.851563c14.167969-10.667969 33.683594-10.667969 47.851563 0zm-154.105469 0c-10.410156-15.035157-27.535156-24.003907-45.820312-24.003907s-35.410156 8.96875-45.820313 24.003907h-27.449219c12.703126-29.15625 41.476563-48.007813 73.277344-48.007813 31.800782 0 60.574219 18.851563 73.277344 48.007813zm-21.894531 0h-47.851563c14.167969-10.667969 33.683594-10.667969 47.851563 0zm187.199219 210.167969c-1.980469 1.511718-3.144532 3.859374-3.144532 6.351562v39.480469h-239.976562v-39.480469c0-2.492188-1.164062-4.839844-3.144531-6.351562-64.710938-49.371094-105.800781-123.152344-108.6875-194.167969h463.664062c-2.886719 71.015625-43.976562 144.796875-108.6875 194.167969zm80.535156-210.167969h-25.183594c-10.457031-29.675781-34.8125-52.324219-65.167968-60.601563-30.351563-8.277344-62.835938-1.125-86.90625 19.136719-4.335938-6.742187-9.265626-13.085937-14.726563-18.953125 31.3125-25.949219 73.648437-34.25 112.441406-22.042969s68.75 43.253907 79.558594 82.460938zm-283.65625-103.648438c-2.65625-.152343-5.3125-.351562-8-.351562s-5.34375.199219-8 .351562v-24.351562h16zm312-40.351562h-432v-8h432zm0 0"/></svg>